<svg width="64" height="16" viewBox="0 0 64 16" fill="none" xmlns="http://www.w3.org/2000/svg">
<path fill-rule="evenodd" clip-rule="evenodd" d="M48 16L64 0H54.3702L38.3708 16H48.0006H48ZM45.7061 6.96804H26.3372C20.4342 6.96804 19.4011 7.28111 16.8727 9.80955C14.5078 12.1739 10.6668 16.0005 10.6668 16.0005H19.0571L21.0588 13.9983C22.3751 12.6825 23.0535 12.546 25.8166 12.546H40.128L45.7056 6.96786H45.7061V6.96804ZM16.6144 8.66835C14.8682 10.3164 11.0683 14.007 9.02019 16.0001H0C0 16.0001 7.22778 8.79316 11.2453 4.83855C15.3845 0.898873 17.4475 0.000179042 25.0393 0.000179042H52.6745L46.691 5.98365H25.601C20.2666 5.98365 19.0681 6.35326 16.6149 8.66835H16.6144Z" fill="white"/>
</svg>
